<svg xmlns="http://www.w3.org/2000/svg" width="24" height="24" viewBox="0 0 24 24">
  <rect width="24" height="24"/>
  <path d="M5.5,20a5.307,5.307,0,0,1-3.9-1.6A5.307,5.307,0,0,1,0,14.5V4A3.852,3.852,0,0,1,1.175,1.175,3.852,3.852,0,0,1,4,0,3.852,3.852,0,0,1,6.825,1.175,3.852,3.852,0,0,1,8,4v9.5A2.476,2.476,0,0,1,5.5,16,2.476,2.476,0,0,1,3,13.5V4H4.5v9.5a.984.984,0,0,0,1,1,.984.984,0,0,0,1-1V4A2.476,2.476,0,0,0,4,1.5,2.476,2.476,0,0,0,1.5,4V14.5a3.852,3.852,0,0,0,1.175,2.825A3.852,3.852,0,0,0,5.5,18.5a3.852,3.852,0,0,0,2.825-1.175A3.852,3.852,0,0,0,9.5,14.5V4H11V14.5a5.307,5.307,0,0,1-1.6,3.9A5.307,5.307,0,0,1,5.5,20" transform="translate(15.142 1.04) rotate(45)"/>
</svg>
